PathFileType	4	(X/Y/Z)
DataRate	CameraRate	NumFrames	NumMarkers	Units	OrigDataRate	OrigDataStartFrame	OrigNumFrames	
  100.0	  100.0	     6	     56	     mm	  100.0	      1	     86
Frame#	Time	LASI			RASI			LPSI			RPSI			RTH1			RTH2			RTH3			RLFC			RMFC			LTH1			LTH2			LTH3			LLFC			LMFC			RTB1			RTB2			RTB3			RLMAL			RMMAL			LTB1			LTB2			LTB3			LMMAL			LLMAL			RCAL			RTOE			RMT5			LCAL			LTOE			LMT5			LACR			RACR			CLAV			C7			LASH			LPSH			RASH			RPSH			RUA1			RUA2			RUA3			RLEL			RMEL			LUA1			LUA2			LUA3			LLEL			LMEL			RFAsuperior			RFAradius			RFAulna			LFAsuperior			LFAradius			LFAulna			RHJC			LHJC			
		X1	Y1	Z1	X2	Y2	Z2	X3	Y3	Z3	X4	Y4	Z4	X5	Y5	Z5	X6	Y6	Z6	X7	Y7	Z7	X8	Y8	Z8	X9	Y9	Z9	X10	Y10	Z10	X11	Y11	Z11	X12	Y12	Z12	X13	Y13	Z13	X14	Y14	Z14	X15	Y15	Z15	X16	Y16	Z16	X17	Y17	Z17	X18	Y18	Z18	X19	Y19	Z19	X20	Y20	Z20	X21	Y21	Z21	X22	Y22	Z22	X23	Y23	Z23	X24	Y24	Z24	X25	Y25	Z25	X26	Y26	Z26	X27	Y27	Z27	X28	Y28	Z28	X29	Y29	Z29	X30	Y30	Z30	X31	Y31	Z31	X32	Y32	Z32	X33	Y33	Z33	X34	Y34	Z34	X35	Y35	Z35	X36	Y36	Z36	X37	Y37	Z37	X38	Y38	Z38	X39	Y39	Z39	X40	Y40	Z40	X41	Y41	Z41	X42	Y42	Z42	X43	Y43	Z43	X44	Y44	Z44	X45	Y45	Z45	X46	Y46	Z46	X47	Y47	Z47	X48	Y48	Z48	X49	Y49	Z49	X50	Y50	Z50	X51	Y51	Z51	X52	Y52	Z52	X53	Y53	Z53	X54	Y54	Z54	X55	Y55	Z55	X56	Y56	Z56	

213	2.13000	723.66550	1022.52355	-612.14792	478.94615	1026.29591	-603.89268	644.41508	1046.56770	-774.21351	547.23528	1044.90594	-774.58186	404.24870	787.92723	-679.77739	409.98700	698.94098	-630.70916	417.89863	611.22997	-703.10854	414.48509	515.91894	-725.23744	522.58782	492.71504	-693.89188	786.29509	827.09649	-667.48996	787.96426	719.65125	-626.67458	780.13020	613.79608	-697.03973	782.75927	527.77087	-688.32301	670.47210	507.43551	-683.32523	449.27450	388.50780	-680.73361	398.99692	321.91971	-728.71805	446.81829	202.85507	-706.20455	413.02180	125.60064	-764.58686	484.50226	138.20027	-729.83458	749.56649	405.96124	-663.04858	807.37696	338.88450	-730.03784	761.49043	219.72235	-688.83559	728.31837	132.87466	-694.72578	799.72364	120.12819	-748.33773	466.52331	108.48345	-813.12427	464.94399	71.03985	-593.12156	367.98660	45.87291	-644.20855	745.25433	107.37023	-796.98179	772.03163	71.42245	-580.21359	860.35843	47.45293	-637.68136	735.16590	1508.46467	-731.23370	475.25373	1520.29977	-717.79704	592.29023	1453.06488	-617.55059	602.37667	1516.84524	-769.50613	747.45888	1480.68001	-659.77085	758.48748	1445.56411	-798.12188	476.60643	1484.77171	-654.42170	434.73594	1464.72860	-782.99960	354.72525	1501.26658	-699.59347	307.89097	1438.71642	-672.53036	263.90240	1500.94165	-596.04609	201.37656	1484.04695	-561.31618	224.99297	1423.13200	-542.82105	861.79765	1465.11059	-728.10765	893.53682	1400.51873	-698.90864	947.07280	1469.03493	-652.46955	1019.87552	1455.31046	-610.04245	1001.70774	1397.12187	-587.97867	163.64618	1543.30147	-470.27739	136.85679	1550.75953	-326.45827	80.90510	1519.69685	-360.74213	1058.15477	1510.23490	-517.98576	1137.91216	1495.81072	-382.90443	1186.50778	1478.35003	-429.14879	503.23079	938.35626	-655.44518	679.44770	948.95325	-674.43871	
214	2.14000	723.78225	1022.55804	-612.30997	479.05392	1026.32852	-604.25291	644.66588	1046.49148	-774.57214	547.50303	1044.77597	-775.05542	404.39304	787.93779	-680.02647	410.00498	698.98947	-630.78162	418.08976	611.23240	-703.23876	414.60554	515.90720	-725.21915	522.67865	492.68584	-693.76270	786.47366	827.09298	-667.49567	788.13303	719.70155	-626.53097	780.26881	613.78873	-696.94772	782.85951	527.71467	-688.10638	670.57538	507.45186	-683.21989	449.35884	388.45606	-680.64998	399.02081	321.95730	-728.63849	446.77823	202.86239	-706.15806	412.00389	125.85167	-764.75614	484.57083	138.21993	-729.90358	749.64129	405.95171	-662.92537	807.45245	338.85206	-729.95249	761.53443	219.76424	-688.78773	728.33773	132.84315	-694.65461	799.74482	120.09167	-748.26209	466.56663	108.48342	-813.13234	464.96905	71.03584	-593.09943	368.01580	45.83401	-644.18841	745.26550	107.37153	-796.97933	772.08202	71.37396	-580.19839	860.36534	47.37700	-637.59355	735.79866	1508.02361	-731.27033	475.02419	1519.82714	-718.20954	592.45231	1452.83685	-617.83162	602.51960	1516.78955	-769.68979	748.21965	1479.43251	-659.74131	758.92719	1445.01543	-798.27276	476.23625	1483.32428	-655.19018	434.69068	1464.05746	-783.26355	353.79051	1497.70731	-699.26665	308.42376	1433.53000	-672.81651	262.94478	1493.26912	-595.68808	201.03442	1474.01147	-561.22638	226.42005	1413.40386	-543.31537	862.37447	1461.93631	-727.85923	892.87788	1396.27107	-699.24012	947.62787	1463.16346	-652.26572	1020.24619	1447.45026	-610.18772	1000.99858	1389.17304	-589.14048	162.01966	1530.77267	-469.09899	135.64809	1535.08660	-325.04316	80.67292	1503.19580	-359.92134	1058.99557	1499.80011	-516.75064	1137.75666	1481.44734	-381.62736	1186.25107	1464.17684	-428.04128	503.38693	938.34936	-655.75999	679.62086	948.93313	-674.60261	
215	2.15000	723.90761	1022.59863	-612.47475	479.14898	1026.37556	-604.61192	644.89163	1046.41291	-774.88639	547.75230	1044.65868	-775.42228	404.52813	787.94910	-680.24973	410.02583	699.03856	-630.87251	418.26529	611.23735	-703.33855	414.77781	515.91762	-725.24195	522.77030	492.66120	-693.60054	786.65454	827.09092	-667.51444	788.24764	719.69602	-626.47965	780.41189	613.79209	-696.88471	782.97459	527.67259	-687.91108	670.68073	507.45580	-683.11711	449.43556	388.41552	-680.54722	399.05985	321.97282	-728.58198	446.64823	202.93447	-706.07861	411.45383	125.98263	-764.84199	484.62506	138.22746	-729.93561	749.71220	405.93601	-662.82100	807.52375	338.82681	-729.87014	761.58467	219.79042	-688.72906	728.34809	132.81695	-694.59246	799.75700	120.06046	-748.19548	466.60125	108.48131	-813.13346	464.99037	71.02574	-593.08916	368.04628	45.81384	-644.18170	745.27407	107.37344	-796.97602	772.11771	71.33814	-580.18602	860.37544	47.32223	-637.52602	736.42417	1507.59367	-731.35461	474.73660	1519.29676	-718.59525	592.55271	1452.60448	-618.12108	602.72821	1516.76587	-769.99933	748.96475	1478.19614	-659.85930	759.35499	1444.45561	-798.38193	475.81950	1482.16313	-655.68045	434.60477	1463.30259	-783.50137	352.82088	1493.93370	-698.95994	309.04748	1428.10467	-673.13867	262.00467	1485.38218	-595.47944	200.82370	1463.83585	-561.24842	227.94849	1403.57713	-544.07242	862.92125	1458.61967	-727.60206	892.16382	1391.87964	-699.70417	948.15001	1457.11502	-652.14696	1020.54850	1439.33245	-610.42482	1000.15218	1381.00136	-590.41848	160.48995	1517.92338	-468.01048	134.65824	1518.98581	-323.79062	80.67080	1486.27652	-359.26629	1059.72663	1488.97002	-515.62519	1137.34334	1466.84060	-380.46951	1185.74572	1449.60735	-427.06714	503.53383	938.35261	-656.03954	679.78226	948.92052	-674.75494	
216	2.16000	724.04399	1022.65266	-612.64733	479.23247	1026.44095	-604.95883	645.09554	1046.33159	-775.15843	547.98713	1044.55203	-775.67256	404.66125	787.95731	-680.44336	410.04421	699.08886	-630.97514	418.43103	611.24135	-703.39093	415.02861	515.94954	-725.33805	522.86494	492.64650	-693.39724	786.82958	827.09208	-667.55506	788.33164	719.66913	-626.51871	780.56244	613.80164	-696.85607	783.11041	527.65341	-687.78056	670.77674	507.44782	-683.02075	449.49886	388.39135	-680.43314	399.11435	321.96915	-728.55630	446.44644	203.06357	-705.97581	411.43013	125.98349	-764.84266	484.66701	138.22240	-729.92630	749.77306	405.91204	-662.74806	807.59349	338.80953	-729.79940	761.62544	219.78364	-688.66960	728.35923	132.80943	-694.57081	799.76994	120.04793	-748.16938	466.62859	108.47457	-813.12608	465.01020	71.01038	-593.09799	368.07949	45.81306	-644.19916	745.28354	107.37316	-796.97366	772.13489	71.32070	-580.18353	860.39549	47.30920	-637.51371	737.04976	1507.21705	-731.47742	474.39089	1518.68909	-718.92831	592.58246	1452.35888	-618.40646	603.10615	1516.78145	-770.72602	749.70762	1476.97290	-660.14008	759.76873	1443.90601	-798.44079	475.32960	1481.30884	-655.86665	434.46856	1462.41214	-783.68572	351.84672	1489.81905	-698.67891	309.81029	1422.32792	-673.52185	261.13359	1477.20129	-595.47542	200.82351	1453.44155	-561.45614	229.61196	1393.57466	-545.24675	863.43240	1455.11294	-727.34264	891.36689	1387.26744	-700.42982	948.61310	1450.79397	-652.17186	1020.73540	1430.84962	-610.82082	999.09845	1372.50860	-591.88632	159.17341	1504.62440	-467.08741	134.00222	1502.25781	-322.81363	81.01909	1468.72757	-358.89054	1060.27921	1477.63142	-514.72215	1136.50359	1451.84467	-379.51105	1184.83566	1434.43050	-426.28694	503.67424	938.36917	-656.27805	679.93493	948.91874	-674.88811	
217	2.17000	724.18742	1022.71997	-612.83028	479.31887	1026.51595	-605.27254	645.30308	1046.24913	-775.42854	548.22360	1044.44342	-775.87062	404.81006	787.95502	-680.61975	410.05211	699.13954	-631.06066	418.60845	611.24095	-703.39903	415.32130	515.97205	-725.42539	522.96319	492.64253	-693.16441	786.98528	827.09584	-667.61318	788.45759	719.70313	-626.56808	780.71935	613.80251	-696.84818	783.26002	527.65236	-687.74434	670.85060	507.44108	-682.93205	449.54757	388.37622	-680.33105	399.16974	321.96807	-728.54841	446.27860	203.17720	-705.88729	411.63978	125.94275	-764.82198	484.70844	138.20749	-729.88756	749.82326	405.88371	-662.70505	807.66955	338.79481	-729.74683	761.63301	219.73936	-688.63500	728.38909	132.82679	-694.61211	799.80156	120.06027	-748.20625	466.65866	108.46380	-813.11424	465.03355	70.99484	-593.12099	368.11642	45.81276	-644.23943	745.30145	107.36763	-796.97450	772.14246	71.31852	-580.19372	860.43064	47.33914	-637.56904	737.69287	1506.90488	-731.59342	474.04102	1518.02617	-719.19653	592.58204	1452.09318	-618.66297	603.64441	1516.80206	-771.93981	750.46615	1475.79130	-660.40394	760.17523	1443.41033	-798.47552	474.78609	1480.51911	-655.92518	434.30980	1461.39067	-783.79952	350.95890	1485.37283	-698.39698	310.71937	1416.23812	-673.98611	260.41215	1468.76220	-595.63151	201.05215	1442.79699	-561.88328	231.40038	1383.33575	-546.84536	863.92236	1451.46493	-727.11640	890.45399	1382.46612	-701.38533	948.99696	1444.19870	-652.37093	1020.77472	1422.04665	-611.42331	997.82915	1363.73046	-593.57295	158.18945	1490.91037	-466.38389	133.69594	1484.91307	-322.16817	81.71662	1450.53847	-358.84346	1060.61684	1465.91067	-514.11426	1135.17115	1436.38086	-378.80292	1183.46183	1418.63251	-425.70285	503.81867	938.39370	-656.49213	680.09126	948.92321	-675.00060	
218	2.18000	724.33185	1022.78699	-613.01572	479.42369	1026.58667	-605.53182	645.52909	1046.16732	-775.72194	548.46228	1044.32557	-776.06354	404.98182	787.94103	-680.78188	410.05190	699.18831	-631.10482	418.80558	611.23957	-703.37625	415.55444	515.94145	-725.26773	523.06018	492.64077	-692.91359	787.11585	827.09790	-667.67173	788.65346	719.81472	-626.56328	780.87603	613.78729	-696.85140	783.40720	527.65152	-687.77165	670.90991	507.44721	-682.85253	449.58474	388.35329	-680.24859	399.21190	321.98101	-728.53518	446.22219	203.21220	-705.83146	411.80056	125.94617	-764.82823	484.75515	138.18354	-729.82784	749.87452	405.85808	-662.67759	807.75611	338.77575	-729.70736	761.60880	219.67818	-688.63875	728.43874	132.85276	-694.68844	799.85298	120.08122	-748.27819	466.69817	108.45575	-813.10321	465.05958	70.98129	-593.14113	368.15564	45.79442	-644.28492	745.32959	107.35881	-796.97788	772.15370	71.32246	-580.20730	860.47504	47.38143	-637.64612	738.35854	1506.59325	-731.65451	473.73336	1517.34958	-719.40041	592.59596	1451.81135	-618.87490	604.09701	1516.77560	-773.08393	751.22203	1474.73426	-660.37009	760.57655	1442.99122	-798.51744	474.24887	1479.52016	-655.99880	434.16561	1460.30775	-783.84813	350.23029	1480.74761	-698.05162	311.76943	1409.97043	-674.55314	259.90611	1460.12148	-595.88218	201.49541	1431.89634	-562.54649	233.32086	1372.83959	-548.77489	864.39024	1447.75402	-726.96985	889.35634	1377.60519	-702.27775	949.28124	1437.38837	-652.75269	1020.63209	1413.03019	-612.25917	996.34847	1354.76674	-595.48489	157.60531	1476.82923	-465.93011	133.73732	1467.04185	-321.87662	82.72571	1431.81017	-359.13932	1060.70153	1453.95307	-513.78610	1133.34552	1420.42211	-378.38439	1181.61495	1402.31084	-425.36016	503.97160	938.41694	-656.68916	680.25638	948.92334	-675.09495	
